<svg width="199" height="129" viewBox="0 0 199 129" fill="none" xmlns="http://www.w3.org/2000/svg">
<path d="M137.12 8.79428C137.075 8.86888 137.018 8.93629 136.958 9.00018C136.643 8.90673 136.185 8.93854 135.889 8.95901L135.84 8.96242C135.385 8.99334 135.083 9.09736 134.683 9.32312C134.502 9.4251 134.319 9.49918 134.137 9.57265C133.865 9.68248 133.596 9.79096 133.345 9.98924C133.317 10.0119 133.284 10.0391 133.248 10.0687C133.178 10.1275 133.096 10.1955 133.013 10.2549L132.742 10.3983C132.615 10.4284 132.521 10.3694 132.513 10.1248C132.508 9.97903 132.339 9.82673 132.198 9.70018C132.14 9.64768 132.087 9.59961 132.052 9.55829C131.716 9.15688 131.36 8.78878 130.949 8.48096C130.857 8.41242 130.769 8.34455 130.684 8.27822C130.321 7.99706 129.994 7.7436 129.545 7.58393C128.922 7.36241 127.134 7.0177 125.474 7.43262C125.502 7.43364 125.515 7.43413 125.515 7.43609C125.515 7.43793 125.504 7.44106 125.482 7.44711C125.228 7.51788 123.539 7.98861 121.885 11.4762C121.872 11.8234 121.828 12.153 121.785 12.4825C121.742 12.8118 121.698 13.1413 121.685 13.4878C121.673 13.8298 121.766 13.9992 121.853 14.1566C121.951 14.3333 122.04 14.4949 121.962 14.8683C121.933 15.0069 121.906 15.1533 121.878 15.3034C121.787 15.8037 121.689 16.3446 121.466 16.7685C121.339 17.0109 121.308 17.3133 121.279 17.6058C121.267 17.7223 121.255 17.8372 121.238 17.9462C121.152 18.4802 121.079 18.9862 121.059 19.5293C121.056 19.6069 121.053 19.6845 121.05 19.762C121.019 20.555 120.988 21.3459 121.132 22.1166C121.208 22.5259 121.262 22.9408 121.315 23.3557C121.375 23.8197 121.435 24.284 121.527 24.7408C121.582 25.0129 121.552 25.3408 121.523 25.6496C121.511 25.7848 121.498 25.9164 121.494 26.038L121.435 27.609C121.424 27.9154 121.378 28.229 121.308 28.5418L17.715 42.0399L16.6211 33.6444C16.2838 31.0563 12.8556 30.3714 11.5498 32.6312L0.588219 51.6026C-0.0289767 52.6708 0.146843 54.0201 1.01715 54.8945L16.4741 70.4235C18.3153 72.2733 21.4536 70.7327 21.1164 68.1447L20.0746 60.1488L116.003 47.6495C115.752 48.1334 115.575 48.6454 115.551 49.2984C115.547 49.3942 115.536 49.5025 115.524 49.6153C115.498 49.8673 115.47 50.1417 115.519 50.3501C115.543 50.4478 115.571 50.5466 115.599 50.6464C115.665 50.8801 115.733 51.1193 115.745 51.3615C115.752 51.5072 115.832 51.6428 115.911 51.7785C115.969 51.8779 116.027 51.9773 116.057 52.0806C116.133 52.3461 116.288 52.7125 116.404 52.9634C116.652 53.4984 116.981 54.0504 117.421 54.437C117.502 54.508 117.581 54.5333 117.661 54.5591C117.715 54.5766 117.771 54.5944 117.828 54.627C117.921 54.6793 117.997 54.7524 118.072 54.8253C118.14 54.8908 118.208 54.9562 118.288 55.0061C118.525 55.1545 119.02 55.3196 119.282 55.3802C119.651 55.4655 120.07 55.459 120.474 55.4526C120.663 55.4497 120.849 55.4467 121.025 55.4533C121.103 55.4562 121.185 55.4638 121.267 55.4714C121.444 55.4878 121.626 55.5046 121.791 55.4776C121.921 55.4565 122.025 55.3888 122.129 55.3201C122.194 55.2776 122.259 55.2347 122.332 55.2022C122.424 55.1611 122.517 55.0559 122.61 54.949C122.738 54.804 122.868 54.6561 123.003 54.6612C123.077 54.6639 123.183 55.0713 123.251 55.3331C123.277 55.4325 123.298 55.5109 123.309 55.5382C123.463 55.9172 123.926 56.6862 124.308 56.7781C124.522 56.8295 124.848 56.9386 125.216 57.0621C126.035 57.337 127.067 57.6832 127.555 57.622C128.047 57.5603 128.469 57.3074 128.565 56.8076C128.572 56.8039 128.579 56.8003 128.586 56.7966C128.724 56.7238 128.839 56.6188 128.934 56.4952C128.935 56.4967 128.936 56.4982 128.937 56.4998C129.042 56.6836 129.163 56.8944 129.264 56.978C129.309 57.0155 129.349 57.0487 129.383 57.0782C129.409 57.0998 129.432 57.1193 129.452 57.137C129.569 57.2373 129.617 57.2788 129.673 57.2939C129.712 57.3045 129.754 57.302 129.827 57.2979C129.908 57.2931 130.029 57.2862 130.225 57.2935C130.418 57.3007 130.609 57.3264 130.802 57.3522C130.995 57.3782 131.19 57.4043 131.387 57.4116C131.545 57.4175 131.683 57.3839 131.819 57.3507C131.937 57.3218 132.054 57.2933 132.181 57.2913C132.721 57.283 133.279 57.3125 133.815 57.3562C133.949 57.3672 134.066 57.3912 134.175 57.4137C134.398 57.4597 134.59 57.4993 134.833 57.4065C134.956 57.3593 135.058 57.2811 135.161 57.2023C135.238 57.1431 135.316 57.0835 135.403 57.0365C135.646 56.9065 135.927 56.7194 136.137 56.5352C136.287 56.4025 136.443 56.32 136.601 56.2357C136.709 56.1783 136.819 56.12 136.93 56.0445C138.141 55.2188 138.89 54.0295 139.45 52.6172C139.5 52.4887 139.517 52.3447 139.534 52.2033C139.541 52.1419 139.548 52.0809 139.558 52.0219C139.571 51.9483 139.61 51.8852 139.649 51.8213C139.682 51.7682 139.715 51.7146 139.734 51.6539C139.79 51.4678 139.828 51.2995 139.868 51.1178C139.878 51.0748 139.887 51.0307 139.898 50.9858C139.96 50.7118 140.086 50.416 140.196 50.1558L140.22 50.0988C140.288 49.9393 140.332 49.7608 140.376 49.5815C140.416 49.4209 140.456 49.2594 140.513 49.1108C140.595 48.8968 140.641 48.6872 140.686 48.4796C140.75 48.1902 140.813 47.9049 140.971 47.6171C141.059 47.4561 141.065 47.2039 141.07 46.964C141.073 46.8205 141.076 46.6814 141.096 46.5688C141.137 46.3438 141.222 46.1498 141.308 45.9542C141.368 45.8185 141.428 45.6821 141.473 45.534L141.474 45.5316C141.594 45.1421 141.721 44.7313 141.737 44.3161C141.745 44.092 141.772 43.8126 141.865 43.6091C141.995 43.3222 142.087 43.0013 142.18 42.6787C142.315 42.206 142.452 41.7294 142.712 41.3516C142.941 41.0191 143.043 40.6146 143.145 40.2114C143.242 39.8309 143.337 39.4516 143.539 39.135C143.624 39.0016 143.658 38.8151 143.69 38.6353C143.707 38.5386 143.724 38.4438 143.749 38.3603C143.786 38.2328 143.832 38.1125 143.878 37.9917L143.878 37.9908C143.912 37.9029 143.945 37.8149 143.975 37.7237C144.135 37.2448 144.311 36.6986 144.408 36.204C144.508 35.6924 144.674 35.195 144.841 34.6973C144.992 34.2453 145.143 33.7931 145.245 33.3301C145.338 32.9054 145.602 32.6039 145.87 32.2966L145.878 32.2882C146.274 31.8352 146.695 31.339 147.005 30.8069C147.242 30.3993 147.285 30.1298 147.351 29.7051C147.36 29.6473 147.369 29.5866 147.38 29.5223C147.438 29.1642 147.558 28.7882 147.674 28.4219C147.729 28.2475 147.784 28.0747 147.831 27.9076C147.872 27.764 147.921 27.6269 147.97 27.4901C148.034 27.3141 148.097 27.138 148.141 26.9494C148.189 26.7446 148.269 26.477 148.405 26.3225C148.511 26.2031 148.622 26.178 148.731 26.1536C148.848 26.1273 148.961 26.1019 149.058 25.9597C149.265 25.6571 149.493 25.3809 149.72 25.1054C149.97 24.8034 150.219 24.5019 150.438 24.1673C150.506 24.0637 150.577 23.9762 150.645 23.8921C150.794 23.7094 150.93 23.543 150.987 23.2637C151.017 23.1142 151.097 22.967 151.178 22.8187C151.245 22.6969 151.312 22.5743 151.352 22.4491C151.535 21.8726 151.597 21.3196 151.62 20.7111C151.629 20.4638 151.654 20.1959 151.68 19.9208C151.737 19.3212 151.797 18.6878 151.699 18.1628C151.675 18.0326 151.64 17.9083 151.606 17.7844C151.551 17.5895 151.497 17.3956 151.484 17.1809C151.479 17.1078 151.477 17.0373 151.475 16.9682C151.469 16.7717 151.464 16.5866 151.4 16.3829C151.36 16.2527 151.321 16.1167 151.282 15.9784C151.131 15.4491 150.971 14.8839 150.648 14.4696C150.585 14.3888 150.527 14.305 150.47 14.2222C150.312 13.9934 150.158 13.7719 149.915 13.6391C149.767 13.5583 149.614 13.4519 149.459 13.3437C149.183 13.152 148.9 12.9547 148.619 12.8835C148.517 12.8577 148.416 12.8319 148.315 12.8061C147.24 12.5316 146.195 12.2648 145.081 12.2234C144.589 12.2051 143.994 12.4443 143.507 12.6405C143.446 12.6652 143.386 12.6891 143.329 12.7118C143.263 12.7381 143.141 12.8023 142.995 12.8796C142.566 13.1067 141.925 13.4462 141.841 13.2641C141.727 13.0134 141.627 12.7351 141.527 12.4539C141.436 12.2014 141.345 11.9457 141.241 11.7061C140.938 11.006 140.51 10.7256 139.958 10.3645L139.878 10.3123L139.816 10.2714C139.736 10.2182 139.652 10.1694 139.568 10.1236L139.582 10.0684C139.602 9.99367 139.619 9.93105 139.63 9.90982C139.727 9.72498 139.79 9.52256 139.854 9.31973C139.913 9.13314 139.972 8.9461 140.057 8.77215C140.134 8.61478 140.205 8.45496 140.276 8.29563C140.435 7.94031 140.593 7.58741 140.808 7.26951C140.927 7.09267 141.043 6.90864 141.159 6.72367C141.436 6.28185 141.717 5.83431 142.065 5.46682C142.159 5.36774 142.245 5.26408 142.331 5.16066C142.426 5.04714 142.521 4.93392 142.624 4.82738C142.654 4.79687 142.684 4.76605 142.713 4.7352C142.772 4.67358 142.832 4.61151 142.892 4.55224C142.943 4.50228 143.003 4.47178 143.063 4.44121C143.124 4.41043 143.184 4.37957 143.236 4.32869C143.353 4.2148 143.479 4.14874 143.607 4.08215C143.677 4.04555 143.747 4.00879 143.816 3.96385C143.857 3.93719 143.902 3.92104 143.947 3.90452C144.004 3.88413 144.062 3.86318 144.116 3.8212C144.21 3.74932 144.212 3.63102 144.213 3.51677C144.214 3.49798 144.214 3.47931 144.214 3.46097C144.234 2.93871 143.957 2.68556 143.654 2.40845C143.568 2.32949 143.479 2.24843 143.395 2.1588C143.342 2.10272 143.282 2.06355 143.222 2.02452C143.163 1.98591 143.104 1.94744 143.052 1.89284C142.951 1.78575 142.832 1.66378 142.716 1.57838C142.686 1.55633 142.666 1.52664 142.647 1.49765C142.616 1.45206 142.586 1.40818 142.521 1.39856C142.465 1.39026 142.412 1.36537 142.36 1.34085C142.341 1.33209 142.323 1.32334 142.304 1.31546C142.021 1.19515 141.73 1.08052 141.436 1.00184C141.322 0.971478 141.21 0.937878 141.098 0.904317C140.923 0.851754 140.749 0.799286 140.568 0.759517C140.455 0.73454 140.305 0.678633 140.2 0.629542C140.027 0.548838 139.769 0.519726 139.579 0.512667C139.413 0.506496 139.243 0.578941 139.077 0.649451C138.982 0.689941 138.889 0.729801 138.799 0.753759C138.336 0.876341 138.147 1.38559 138.28 1.85612C138.299 1.92615 138.303 2.00407 138.306 2.08217C138.309 2.14685 138.311 2.21173 138.323 2.27228C138.334 2.32775 138.347 2.3834 138.36 2.4391C138.38 2.52387 138.4 2.60925 138.413 2.69388L138.428 2.78915C138.471 3.0596 138.513 3.328 138.503 3.60504C138.5 3.68836 138.499 3.77383 138.499 3.86008V3.861C138.497 4.07694 138.496 4.29769 138.454 4.50169C138.423 4.65523 138.398 4.8114 138.374 4.96765C138.332 5.23929 138.29 5.51117 138.209 5.7699C138.156 5.93879 138.119 6.11234 138.082 6.28591C138.034 6.51113 137.986 6.73638 137.904 6.95149C137.837 7.12437 137.79 7.29504 137.742 7.47441C137.72 7.55323 137.688 7.62553 137.656 7.69793C137.613 7.7934 137.57 7.88905 137.553 8.00008C137.514 8.24256 137.448 8.42725 137.326 8.62938C137.295 8.68067 137.255 8.69946 137.217 8.71769C137.181 8.73485 137.145 8.7515 137.12 8.79428Z" fill="#42EA85"/>
<path d="M197.078 71.7952C198.235 72.9644 198.464 74.7642 197.637 76.1861L189.504 90.1664C187.754 93.1744 183.186 92.2478 182.746 88.7958L182.311 85.3745L84.9387 97.7719C84.9429 97.7973 84.9471 97.8227 84.9513 97.8479C85.1193 98.8686 85.2318 99.8264 85.2451 100.861C85.2533 101.501 84.9612 101.844 84.413 102.166C83.4174 102.752 83.4336 104.255 83.4452 105.32C83.4469 105.476 83.4484 105.622 83.4468 105.755C83.4433 106.029 83.4483 106.296 83.4531 106.557C83.4735 107.652 83.492 108.641 82.8741 109.65C82.6221 110.062 82.2306 110.406 81.8481 110.743C81.6334 110.932 81.4216 111.118 81.2388 111.312C81.0739 111.487 80.867 111.594 80.657 111.703C80.4504 111.809 80.2409 111.917 80.0654 112.093C79.8429 112.317 79.563 112.415 79.2824 112.514C79.0681 112.589 78.8535 112.664 78.6635 112.796C78.3362 113.022 78.2365 113.384 78.1376 113.743C78.0562 114.038 77.9753 114.331 77.7687 114.547C77.3883 114.945 76.6976 115.037 76.0585 115.123C75.7339 115.166 75.4226 115.207 75.172 115.286C74.5213 115.491 73.8393 115.993 73.4176 116.492C73.0855 116.885 72.8294 116.911 72.4477 116.948C72.3354 116.959 72.2123 116.972 72.0732 116.994C71.9963 116.951 71.6757 116.908 71.2356 116.849C70.0532 116.691 68.0081 116.417 67.5107 115.712L67.4406 115.613C66.7895 114.69 66.2541 113.931 66.1094 113.513C65.8682 112.817 65.5324 112.153 65.1966 111.489C64.7924 110.689 64.3882 109.89 64.1494 109.036C63.9442 108.302 63.5338 107.817 62.9717 107.279C62.6996 107.019 62.3904 106.788 62.0816 106.559C61.7199 106.289 61.3587 106.021 61.0585 105.704C59.291 103.841 57.7138 101.685 57.2934 99.132C57.2633 98.9493 57.2311 98.7662 57.1989 98.5827C57.0572 97.7767 56.9142 96.9631 56.9424 96.1452C56.9501 95.9218 57.0001 95.7161 57.0504 95.5089C57.0814 95.381 57.1126 95.2526 57.1341 95.119C57.2968 94.1081 56.6743 92.8923 56.0972 92.1067C56.0286 92.0134 55.9417 91.9341 55.8543 91.8543C55.7739 91.781 55.6932 91.7074 55.6259 91.6221C55.4116 91.3505 55.2671 91.0738 55.117 90.786C55.0683 90.6927 55.019 90.5982 54.9665 90.5025C54.6587 89.9404 54.4429 89.5127 54.3381 88.876C54.1931 87.9952 53.933 87.2683 53.6194 86.4342C53.3791 85.7951 53.2117 85.13 53.0445 84.4654C52.9316 84.0169 52.8188 83.5686 52.6836 83.1285C52.6697 83.0831 52.6561 83.038 52.6426 82.9932C52.5468 82.6749 52.4555 82.3715 52.2693 82.0809C52.1943 81.9639 52.1136 81.8517 52.0332 81.7399C51.8602 81.4993 51.6885 81.2605 51.5777 80.9795C51.4322 80.6106 51.3564 80.2215 51.2802 79.831C51.1961 79.3994 51.1117 78.9659 50.9323 78.5558C50.8902 78.4594 50.8676 78.3591 50.845 78.2593C50.8136 78.1198 50.7823 77.9811 50.6982 77.8549C50.5223 77.5909 50.2383 77.3488 49.9855 77.1333C49.9435 77.0975 49.9023 77.0624 49.8627 77.028C49.5518 76.7589 49.509 76.2559 49.4705 75.8019C49.4569 75.6424 49.4439 75.4889 49.4199 75.3538C49.3548 74.9869 49.2033 74.7329 49.033 74.4475C48.983 74.3637 48.9314 74.2771 48.8798 74.1842C48.8268 74.0885 48.752 73.9932 48.6763 73.8968C48.56 73.7484 48.4414 73.5973 48.3963 73.4378C48.3192 73.1653 48.2315 72.9469 48.0216 72.7383C47.9482 72.6653 47.2106 71.7014 47.2762 71.5549C47.2462 71.5123 47.2172 71.4713 47.1893 71.4317C46.8252 70.9163 46.6338 70.6454 46.8283 70.379C46.8894 70.2954 46.9946 69.9399 47.0999 69.5844C47.2052 69.2289 47.3105 68.8735 47.3715 68.7899C47.5608 68.5307 48.0843 68.1726 48.608 68.8362C49.365 69.2445 49.9842 69.8215 50.427 70.234C50.6072 70.4018 50.7581 70.5425 50.8772 70.6334C51.0351 70.754 51.1542 70.899 51.2742 71.0449C51.4067 71.2061 51.5402 71.3686 51.7282 71.501L60.2888 77.7852C60.3992 77.8085 60.5247 77.8265 60.6562 77.8454C61.0381 77.9003 61.4701 77.9624 61.7261 78.18C61.8825 78.3129 62.0514 78.4181 62.2154 78.5202C62.5138 78.706 62.7961 78.8818 62.958 79.1967C63.0114 79.3007 63.0826 79.3843 63.1525 79.4665C63.2508 79.5819 63.3467 79.6946 63.3878 79.8568C63.4851 80.2417 63.6228 80.5284 64.0302 80.6333C64.2102 80.6796 64.4274 80.6882 64.65 80.697C65.0536 80.7129 65.4746 80.7295 65.7224 80.9731C65.846 81.0946 65.9567 81.2258 66.0674 81.3569C66.2362 81.5569 66.4046 81.7564 66.6173 81.92C66.9897 82.2063 67.2913 82.4785 67.5701 82.8324L180.162 68.4972L179.503 63.3189C179.063 59.8669 183.254 57.8251 185.701 60.2987L197.078 71.7952Z" fill="#FFCA62"/>
<path d="M82.8605 103.232C83.7324 103.612 84.6134 103.564 85.5379 103.628C85.8268 103.649 86.1093 103.576 86.3982 103.594C86.5451 103.603 86.6929 103.618 86.8393 103.624C87.2028 103.64 87.5998 103.596 87.9576 103.543C88.484 103.466 89.0083 103.37 89.5333 103.284C90.1296 103.186 90.7774 103.144 91.3452 102.932C91.7566 102.778 92.1553 102.5 92.5046 102.238C92.7699 102.04 93.0653 101.942 93.3449 101.774C93.4291 101.724 93.5231 101.708 93.6085 101.663C93.711 101.608 93.7753 101.497 93.8769 101.445C93.9459 101.41 93.8959 102.017 93.8915 102.064C93.8601 102.392 93.8136 102.725 93.7219 103.042C93.6112 103.424 93.4232 103.878 93.1892 104.203C93.0063 104.458 92.6545 104.586 92.4065 104.759C92.153 104.935 91.8845 105.103 91.6285 105.268C91.4842 105.362 91.1953 105.348 91.0256 105.376L90.607 105.445C90.4964 105.463 90.6573 105.548 90.6929 105.573C90.9515 105.753 91.2377 105.889 91.5154 106.035C91.8544 106.214 92.2113 106.441 92.5995 106.461C92.9652 106.479 93.3276 106.526 93.6935 106.503C94.0627 106.48 94.4152 106.524 94.7823 106.464C94.8054 106.46 94.8933 106.431 94.903 106.471C94.9195 106.538 94.8117 106.686 94.7883 106.723C94.5712 107.06 94.3158 107.371 94.0639 107.681C93.3703 108.535 92.7458 109.474 91.9179 110.205C91.6234 110.464 91.2763 110.538 90.9371 110.714C90.7111 110.832 90.4946 110.87 90.251 110.92C90.1475 110.941 90.214 110.982 90.284 111.01C90.4854 111.088 90.643 111.171 90.822 111.296C91.3478 111.663 91.9364 111.88 92.431 112.299C92.802 112.613 93.2155 112.833 93.6227 113.094C93.6279 113.097 93.6717 113.123 93.731 113.153C93.9379 113.133 94.0886 113.14 94.0983 113.199C94.1199 113.331 93.8781 113.227 93.731 113.153C93.2823 113.194 92.5689 113.358 92.4525 113.377C92.313 113.4 92.2101 113.444 92.0839 113.504C91.8603 113.611 91.5979 113.629 91.3567 113.669L90.4424 113.82C89.9489 113.901 89.4749 113.97 88.9776 113.989C88.9218 113.991 88.8683 114.005 88.812 114.006C88.6721 114.007 88.9605 114.412 88.9808 114.44C89.2179 114.767 89.4597 115.072 89.6713 115.418C89.9695 115.907 90.1906 116.434 90.4865 116.921C90.8687 117.55 91.1765 118.208 91.5732 118.828C91.6228 118.905 91.9969 119.463 91.7829 119.498L91.7749 119.5C91.459 119.552 91.1603 119.601 90.8384 119.588C90.3792 119.569 90.001 119.452 89.5616 119.347C88.7035 119.141 87.7759 119.045 87.0356 118.515C86.8673 118.395 86.6741 118.253 86.4891 118.164C86.4243 118.133 86.4076 118.118 86.4206 118.204C86.455 118.434 86.5012 118.661 86.5336 118.891C86.6036 119.387 86.5889 119.891 86.6182 120.39C86.6631 121.156 86.704 121.922 86.7029 122.691C86.7021 123.292 86.7368 123.889 86.5589 124.464C86.4755 124.734 86.4233 125.006 86.3879 125.286C86.3776 125.368 86.3975 125.502 86.3371 125.568C86.2594 125.654 86.1771 125.654 86.0942 125.584C85.9968 125.501 85.9538 125.365 85.9018 125.253C85.7847 124.999 85.6614 124.748 85.5419 124.496C85.091 123.542 84.6243 122.585 84.1068 121.667C83.9524 121.393 83.7755 121.133 83.632 120.853C83.591 120.773 83.5015 120.639 83.5924 120.81C83.6889 120.991 83.7014 121.201 83.7343 121.4C83.7839 121.702 83.7033 122.026 83.6296 122.316C83.4664 122.96 83.3505 123.611 83.2346 124.265C83.1661 124.652 83.0469 125.018 82.9226 125.389C82.8041 125.742 82.7392 126.127 82.5454 126.448C82.2214 126.986 81.6796 127.25 81.2975 127.726C81.2437 127.793 81.2479 127.557 81.2454 127.47C81.2264 126.824 81.1558 126.202 81.0612 125.563C80.9448 124.777 81.0205 124.074 81.1545 123.297C81.2285 122.868 81.3306 122.409 81.2728 121.971C81.2413 121.731 81.1131 121.788 80.8929 121.856C80.5617 121.958 80.2999 122.195 80.0501 122.428C79.7347 122.721 79.4409 123.024 79.1739 123.363C78.8557 123.768 78.5866 124.196 78.1414 124.471C78.0245 124.543 77.9077 124.616 77.795 124.695C77.7156 124.751 77.7715 124.67 77.7871 124.622C77.8882 124.313 78.073 124.043 78.1666 123.725C78.276 123.354 78.3916 122.946 78.3387 122.553C78.2942 122.222 78.151 121.835 78.1945 121.505C78.207 121.41 78.1683 121.296 78.1529 121.202C78.121 121.009 78.1294 120.809 78.1453 120.614C78.1519 120.533 78.2743 120.08 78.0775 120.128C77.9449 120.161 77.8351 120.249 77.7725 120.37C77.5993 120.706 77.4481 121.069 77.3473 121.434C77.1432 122.173 77.0204 123.216 76.2856 123.608C76.1515 123.679 76.0824 123.716 75.9283 123.741C75.638 123.789 75.8626 123.595 75.9475 123.402C76.3682 122.445 76.6461 121.401 76.9458 120.399C77.0432 120.073 77.1646 119.734 77.1795 119.392C77.1968 118.995 77.3218 118.624 77.261 118.224C77.221 117.961 77.2146 117.727 77.2049 117.465C77.1908 117.083 77.1241 116.729 77.0295 116.362C76.9524 116.063 76.8815 115.635 76.6273 115.435C76.5498 115.373 76.2872 114.823 76.4373 114.724C76.6068 114.612 76.8276 114.6 77.0052 114.503C77.0566 114.474 77.1743 114.327 77.1927 114.274C77.2459 114.118 77.3852 114.015 77.461 113.871C77.4942 113.808 77.4733 113.732 77.5 113.665C77.5305 113.588 77.6003 113.497 77.5983 113.411C77.5953 113.283 77.5948 113.126 77.626 113.001C77.6621 112.855 77.7879 112.786 77.8348 112.668C77.873 112.571 77.8671 112.51 77.9742 112.443C78.1178 112.353 78.3564 112.294 78.5217 112.258C78.6836 112.222 78.7911 112.097 78.9422 112.04C79.4243 111.856 79.9416 111.562 80.298 111.184C80.4029 111.073 80.5274 110.99 80.6352 110.879C80.8259 110.682 80.9752 110.496 81.1334 110.271C81.2024 110.174 81.2817 110.04 81.3778 109.969C81.4755 109.898 81.6395 109.837 81.7183 109.746C81.8735 109.567 81.998 109.326 82.1514 109.137C82.2226 109.049 82.2985 108.97 82.3665 108.879C82.3993 108.835 82.4646 108.801 82.4829 108.749C82.5054 108.684 82.493 108.617 82.5321 108.555C82.774 108.173 82.715 107.635 82.7399 107.206C82.7475 107.075 82.7174 106.931 82.7157 106.8C82.7137 106.647 82.7815 106.474 82.7499 106.33C82.7075 106.137 82.6172 105.968 82.5837 105.764L82.5156 105.35C82.4483 104.942 82.4127 104.575 82.4336 104.175C82.4377 104.095 82.4622 104.024 82.5055 103.959C82.5597 103.877 82.5123 103.783 82.5685 103.689C82.6454 103.56 82.582 103.029 82.8605 103.232Z" fill="#42EA85"/>
<path d="M32.2354 56.2911C31.7084 55.174 31.1985 54.1885 30.7057 53.3347C30.2504 52.476 29.8498 51.744 29.5038 51.1388C28.1005 51.8175 26.5461 52.3628 24.8405 52.7747C25.152 55.1814 25.4737 57.2236 25.8056 58.9013C25.9795 59.9493 26.1339 60.847 26.2688 61.5942C26.4365 62.299 26.5732 62.9122 26.679 63.4338C26.8223 63.9505 26.9584 64.4109 27.0871 64.8148C27.2208 65.2563 27.3895 65.6742 27.5935 66.0684C26.9144 66.7298 26.2346 67.2384 25.5542 67.5941C24.9114 67.9449 24.334 68.2108 23.8222 68.3918C23.2023 68.625 22.6431 68.7356 22.1445 68.7236C21.8884 68.2215 21.6461 67.6793 21.4178 67.0971C21.1944 66.5525 20.9794 65.7774 20.7727 64.7718C20.6086 63.7989 20.4267 62.5416 20.2272 60.9997C20.0276 59.4579 19.8285 57.4763 19.6298 55.055C19.6333 54.7869 19.6181 54.5212 19.584 54.258C19.5499 53.9948 19.5347 53.7291 19.5382 53.461C19.1949 53.4672 18.8328 53.4758 18.4518 53.4869C18.1085 53.4931 17.7652 53.4993 17.4219 53.5055C17.1184 52.933 16.8998 52.426 16.7662 51.9845C16.6277 51.5053 16.539 51.1153 16.5001 50.8145C16.4514 50.4384 16.4501 50.1327 16.4961 49.8974C17.1124 49.9323 17.7213 49.9108 18.323 49.833L19.1691 49.7235C19.0399 48.1343 18.9083 46.5263 18.7742 44.8996C18.6352 43.2352 18.4848 41.6297 18.3228 40.083C18.1936 38.4938 18.0578 37.0011 17.9153 35.6048C17.7679 34.171 17.6376 32.8687 17.5243 31.6981C16.4935 32.5962 15.6423 33.7005 14.9708 35.011C14.2992 36.3214 13.9152 37.7858 13.8188 39.4042C13.3202 39.3922 12.8773 39.2201 12.4902 38.8879C12.0982 38.518 11.7627 38.1409 11.4835 37.7564C11.157 37.3016 10.8608 36.7856 10.5949 36.2082C10.3144 35.5181 10.2219 34.8036 10.3174 34.0647C10.4081 33.2883 10.6001 32.5561 10.8934 31.8681C11.1818 31.1425 11.5389 30.5037 11.9645 29.9515C12.3852 29.3618 12.8017 28.8873 13.214 28.528C13.9405 27.937 14.693 27.3998 15.4717 26.9167C16.283 26.3911 17.1982 25.9285 18.2171 25.529C18.5772 25.0618 18.9798 24.6274 19.4248 24.2256C19.9075 23.819 20.3696 23.5489 20.8111 23.4153C21.4309 23.1822 21.8393 23.5308 22.0362 24.4612C22.3698 24.3798 22.7246 24.3147 23.1007 24.2661C23.4718 24.1798 23.8643 24.1099 24.2779 24.0563C25.7069 23.8714 27.2215 23.9047 28.8218 24.1564C30.422 24.4082 31.9271 24.9589 33.3371 25.8088C34.7798 26.6162 36.0195 27.7748 37.0561 29.2848C38.0879 30.7571 38.7522 32.6403 39.0491 34.9342C39.3849 37.529 39.0735 39.9972 38.1148 42.3389C37.1938 44.6758 35.6976 46.7048 33.6262 48.4258C33.977 49.0686 34.425 49.8709 34.9701 50.8327C35.5152 51.7945 36.0773 52.888 36.6564 54.113C37.4625 55.6146 38.2941 57.0172 39.1511 58.321C40.0408 59.5823 40.9274 60.672 41.8109 61.59C42.6945 62.508 43.5888 63.2143 44.494 63.7089C45.4041 64.2411 46.2801 64.5101 47.122 64.5158C46.7305 65.3312 46.2345 65.9307 45.6342 66.3142C45.0338 66.6978 44.4189 66.9686 43.7893 67.1266C43.0894 67.3319 42.3373 67.4292 41.533 67.4186C40.4132 67.3341 39.4049 66.9293 38.5082 66.2042C37.6114 65.4791 36.7867 64.5726 36.0341 63.4847C35.3191 62.392 34.632 61.2191 33.9728 59.9662C33.3463 58.6708 32.7672 57.4458 32.2354 56.2911ZM22.5819 33.1082C22.6889 33.9355 22.7991 34.9345 22.9124 36.1051C23.0257 37.2758 23.1511 38.5404 23.2887 39.8991C23.464 41.2529 23.6301 42.6843 23.7872 44.1934C23.9394 45.6649 24.1104 47.1339 24.3003 48.6005C25.2961 48.3187 26.3739 47.9306 27.5334 47.4364C28.7306 46.9374 29.8046 46.2248 30.7553 45.2988C31.706 44.3728 32.4535 43.2055 32.9976 41.7969C33.5418 40.3882 33.68 38.6497 33.4123 36.5814C33.2079 35.002 32.753 33.7035 32.0478 32.686C31.3753 31.6259 30.5628 30.8135 29.6103 30.2485C28.6529 29.646 27.6282 29.2624 26.5363 29.0978C25.4772 28.8908 24.4399 28.853 23.4246 28.9844C23.2366 29.0088 23.0485 29.0331 22.8605 29.0574C22.6725 29.0818 22.4681 29.1273 22.2473 29.1941C22.2903 30.4121 22.4018 31.7168 22.5819 33.1082Z" fill="black"/>
<path d="M53.1489 60.1225C50.5166 60.4632 48.3715 59.8423 46.7137 58.2598C45.056 56.6773 44.0421 54.4571 43.6722 51.5991C43.4142 49.606 43.4554 47.708 43.7955 45.9052C44.1685 44.0598 44.7611 42.4346 45.5733 41.0295C46.3856 39.6243 47.3847 38.4818 48.5708 37.6018C49.7897 36.6793 51.1136 36.1256 52.5426 35.9407C53.934 35.7606 55.1843 36.1149 56.2934 37.0037C57.3977 37.8549 58.0691 39.2018 58.3076 41.0445C58.4634 42.2479 58.3559 43.4853 57.9852 44.7568C57.6096 45.9907 57.0501 47.1337 56.3069 48.1858C55.5964 49.1954 54.77 50.048 53.8277 50.7435C52.8853 51.439 51.9441 51.8475 51.0039 51.9692C50.4023 52.0471 49.8849 52.0376 49.4517 51.9407C49.0186 51.8438 48.6133 51.6669 48.236 51.4098C48.6262 53.5387 49.291 54.9821 50.2302 55.74C51.1646 56.4602 52.2899 56.7351 53.6061 56.5648C54.5086 56.448 55.274 56.1577 55.9022 55.6941C56.5681 55.2255 57.1138 54.7152 57.5394 54.1631C57.965 53.6109 58.2965 53.0709 58.5341 52.5431C58.7668 51.9777 58.9225 51.5561 59.0013 51.2782C59.0849 51.038 59.2583 50.9009 59.5216 50.8668C59.8224 50.8279 60.002 51.034 60.0604 51.4853C60.114 51.8989 60.0463 52.5577 59.8574 53.4616C59.7012 54.3229 59.3595 55.2275 58.8321 56.1751C58.2999 57.0852 57.5675 57.9256 56.6349 58.6963C55.7399 59.4621 54.5779 59.9375 53.1489 60.1225ZM52.9694 38.3516C52.7437 38.3808 52.3429 38.6812 51.7669 39.2528C51.2236 39.782 50.6531 40.544 50.0554 41.5391C49.4954 42.5292 48.9972 43.7025 48.561 45.0589C48.1576 46.3729 47.9828 47.8294 48.0368 49.4283C50.225 48.6098 51.9042 47.5512 53.0744 46.2527C54.2445 44.9542 54.6885 43.2144 54.4062 41.0333C54.265 39.9427 54.0385 39.2265 53.7266 38.8845C53.4098 38.5049 53.1574 38.3273 52.9694 38.3516Z" fill="black"/>
<path d="M78.7733 48.9486C78.8268 49.3622 78.7591 50.021 78.5703 50.9248C78.4141 51.7862 78.0723 52.6908 77.545 53.6384C77.0128 54.5485 76.2804 55.3889 75.3478 56.1596C74.4528 56.9254 73.2908 57.4008 71.8618 57.5858C69.8311 57.8486 68.0495 57.5248 66.5169 56.6143C65.0171 55.6614 63.8513 54.1873 63.0195 52.192C62.3444 50.5205 61.9743 48.6949 61.9092 46.7151C61.8769 44.6928 62.1837 42.7796 62.8295 40.9754C63.4754 39.1712 64.4939 37.5865 65.8848 36.2211C67.2709 34.8182 69.0659 33.9167 71.2701 33.5168C72.3933 33.3331 73.3602 33.4183 74.1708 33.7722C74.9813 34.1261 75.6396 34.6336 76.1457 35.2945C76.6519 35.9555 76.9985 36.7136 77.1857 37.5687C77.368 38.3863 77.3762 39.1882 77.2103 39.9744C77.082 40.7557 76.7887 41.4437 76.3304 42.0383C75.9048 42.5904 75.2995 42.9364 74.5147 43.0762C73.7347 43.2536 73.0645 43.2448 72.5039 43.0497C71.9761 42.8121 71.535 42.506 71.1806 42.1313C70.8639 41.7517 70.6198 41.3436 70.4486 40.9069C70.315 40.4654 70.2639 40.0705 70.2953 39.7223C70.3448 39.2189 70.4745 38.7433 70.6842 38.2955C70.8611 37.8903 71.1321 37.4729 71.4971 37.0433C71.8997 36.6088 72.4436 36.2325 73.1289 35.9144C73.0064 35.8538 72.8887 35.8308 72.7759 35.8454C72.663 35.86 72.5478 35.8558 72.4301 35.8328C72.2797 35.8523 72.1644 35.8481 72.0844 35.8202C71.4827 35.8981 70.8138 36.1949 70.0776 36.7108C69.379 37.2218 68.7309 37.9748 68.1332 38.9698C67.5731 39.96 67.1411 41.2012 66.8372 42.6934C66.566 44.1433 66.5594 45.8647 66.8174 47.8578C66.9293 48.7227 67.1353 49.5755 67.4353 50.416C67.7304 51.219 68.1098 51.9346 68.5734 52.5628C69.0698 53.1486 69.6269 53.6118 70.2445 53.9524C70.8948 54.2506 71.6149 54.3486 72.4046 54.2464C73.3071 54.1296 74.0725 53.8393 74.7007 53.3757C75.3617 52.8695 75.9025 52.3216 76.3232 51.7318C76.744 51.1421 77.0519 50.5669 77.247 50.0064C77.4797 49.441 77.6354 49.0194 77.7141 48.7415C77.7978 48.5013 77.9712 48.3641 78.2344 48.3301C78.5353 48.2911 78.7149 48.4973 78.7733 48.9486Z" fill="black"/>
<path d="M90.6039 55.2747C87.9715 55.6154 85.8264 54.9945 84.1686 53.412C82.5109 51.8295 81.497 49.6093 81.1271 46.7512C80.8692 44.7582 80.9103 42.8602 81.2505 41.0573C81.6234 39.212 82.216 37.5868 83.0282 36.1817C83.8405 34.7765 84.8396 33.634 86.0257 32.754C87.2446 31.8315 88.5685 31.2778 89.9975 31.0929C91.3889 30.9128 92.6392 31.2671 93.7483 32.1559C94.8526 33.0071 95.524 34.354 95.7625 36.1967C95.9183 37.4001 95.8108 38.6375 95.4401 39.909C95.0645 41.1429 94.5051 42.2859 93.7618 43.338C93.0513 44.3476 92.2249 45.2002 91.2826 45.8956C90.3402 46.5911 89.399 46.9997 88.4589 47.1214C87.8572 47.1993 87.3398 47.1898 86.9066 47.0929C86.4735 46.996 86.0683 46.8191 85.6909 46.562C86.0811 48.6909 86.7459 50.1343 87.6851 50.8922C88.6195 51.6124 89.7448 51.8873 91.061 51.717C91.9635 51.6002 92.7289 51.3099 93.3571 50.8463C94.023 50.3777 94.5687 49.8674 94.9943 49.3152C95.4199 48.7631 95.7515 48.2231 95.989 47.6953C96.2217 47.1299 96.3775 46.7083 96.4562 46.4304C96.5398 46.1902 96.7132 46.053 96.9765 46.019C97.2773 45.98 97.4569 46.1862 97.5153 46.6375C97.5689 47.0511 97.5012 47.7099 97.3123 48.6137C97.1562 49.4751 96.8144 50.3797 96.2871 51.3273C95.7549 52.2374 95.0224 53.0778 94.0898 53.8485C93.1949 54.6143 92.0329 55.0897 90.6039 55.2747ZM90.4243 33.5038C90.1986 33.533 89.7978 33.8334 89.2218 34.405C88.6785 34.9342 88.108 35.6962 87.5103 36.6912C86.9503 37.6814 86.4521 38.8547 86.0159 40.2111C85.6125 41.5251 85.4377 42.9816 85.4917 44.5805C87.6799 43.7619 89.3591 42.7034 90.5293 41.4049C91.6994 40.1064 92.1434 38.3666 91.8611 36.1855C91.7199 35.0949 91.4934 34.3787 91.1815 34.0367C90.8647 33.6571 90.6123 33.4795 90.4243 33.5038Z" fill="black"/>
<path d="M99.4462 33.1964C99.417 32.9707 99.6862 32.6874 100.254 32.3462C100.821 32.0051 101.453 31.7131 102.148 31.4702C102.876 31.1849 103.54 31.0032 104.142 30.9254C104.776 30.805 105.113 30.8953 105.152 31.1961C105.225 31.7602 105.292 32.5736 105.353 33.6362C105.409 34.6613 105.457 35.764 105.495 36.9444C105.528 38.0872 105.563 39.2487 105.602 40.4291C105.635 41.5719 105.684 42.5405 105.748 43.3351C105.78 44.1722 105.822 45.0844 105.873 46.0719C105.905 46.909 105.968 47.8376 106.062 48.8578C106.155 49.878 106.289 50.9122 106.463 51.9602C106.487 52.1483 106.324 52.3606 105.972 52.5973C105.62 52.834 105.224 53.0192 104.782 53.1528C104.346 53.324 103.92 53.4364 103.507 53.4899C103.093 53.5435 102.858 53.4975 102.801 53.3519C102.706 53.2112 102.597 52.9577 102.473 52.5914C102.349 52.2251 102.205 51.7084 102.043 51.0412C101.875 50.3364 101.702 49.4412 101.523 48.3555C101.339 47.2322 101.183 45.876 101.054 44.2868C100.8 41.1461 100.507 38.737 100.176 37.0593C99.8389 35.3441 99.5958 34.0564 99.4462 33.1964ZM101.942 21.4601C102.694 21.3628 103.438 21.4959 104.173 21.8596C104.908 22.2232 105.325 22.7811 105.422 23.5332C105.495 24.0973 105.415 24.662 105.182 25.2275C104.987 25.788 104.71 26.3019 104.35 26.7691C103.99 27.2363 103.563 27.6356 103.071 27.9669C102.574 28.2607 102.099 28.4368 101.648 28.4952C101.046 28.5731 100.545 28.5423 100.145 28.403C99.7397 28.226 99.4072 28.0205 99.1475 27.7865C98.9206 27.51 98.7476 27.2074 98.6285 26.8787C98.5095 26.55 98.4306 26.2352 98.3916 25.9343C98.3429 25.5583 98.3458 25.1373 98.4002 24.6715C98.4498 24.168 98.6006 23.7088 98.8528 23.2938C99.1001 22.8412 99.4699 22.4492 99.9623 22.1178C100.455 21.7864 101.115 21.5672 101.942 21.4601ZM101.211 26.8886C101.436 26.8594 101.671 26.7525 101.915 26.568C102.191 26.3411 102.428 26.1002 102.624 25.8453C102.858 25.5856 103.033 25.3144 103.15 25.0317C103.304 24.7441 103.369 24.5063 103.344 24.3183C103.305 24.0175 103.135 23.8865 102.835 23.9255C102.647 23.9498 102.412 24.0566 102.13 24.246C101.887 24.4305 101.648 24.6526 101.414 24.9123C101.175 25.1344 100.978 25.3892 100.824 25.6768C100.703 25.9219 100.657 26.1573 100.686 26.3829C100.735 26.759 100.91 26.9275 101.211 26.8886Z" fill="black"/>
<path d="M129.75 24.055C129.326 24.0334 128.753 24.0312 128.028 24.0484C127.342 24.0608 126.639 24.0945 125.919 24.1493C125.087 24.2188 124.201 24.3144 123.261 24.4361C122.311 24.4825 121.126 24.6359 119.707 24.896C118.321 25.1137 116.857 25.3224 115.315 25.5219C115.404 26.5045 115.457 27.5108 115.476 28.5407C115.532 29.5658 115.586 30.5721 115.637 31.5596C115.683 33.389 115.752 35.2535 115.845 37.1533C115.976 39.0481 116.15 40.8417 116.37 42.5339C116.589 44.2262 116.882 45.7558 117.25 47.1229C117.651 48.4475 118.185 49.4681 118.851 50.1848C118.444 50.5817 117.989 50.9082 117.487 51.1643C116.98 51.3829 116.524 51.5566 116.12 51.6853C115.646 51.8614 115.164 51.9811 114.675 52.0444C114.224 52.1028 113.829 52.001 113.489 51.7391C113.149 51.4772 112.912 50.9726 112.777 50.2254C112.536 48.9566 112.352 47.6804 112.224 46.397C112.129 45.071 112.026 43.6887 111.917 42.25C111.844 40.8064 111.76 39.2688 111.664 37.6371C111.562 35.9679 111.442 34.1482 111.301 32.1781C111.151 30.1329 110.952 28.1513 110.704 26.2334C109.28 26.456 108.079 26.6305 107.101 26.7571C106.123 26.8836 105.576 26.9354 105.458 26.9124C105.335 26.8518 105.182 26.6996 104.997 26.4558C104.818 26.2497 104.586 25.9355 104.302 25.5135C103.98 25.0963 103.578 24.4984 103.095 23.7197C103.809 23.6273 104.599 23.525 105.464 23.4131C106.291 23.306 107.06 23.1874 107.769 23.0573C108.592 22.9127 109.414 22.768 110.237 22.6233C110.121 22.0265 110.02 21.3896 109.932 20.7127C109.826 20.1911 109.732 19.6107 109.649 18.9714C109.562 18.2945 109.462 17.6764 109.352 17.1172C109.323 16.8916 109.552 16.5943 110.039 16.2253C110.56 15.8138 111.122 15.4351 111.728 15.0891C112.333 14.7431 112.894 14.4985 113.411 14.3551C113.965 14.2069 114.264 14.302 114.308 14.6405C114.352 14.9789 114.44 15.8087 114.573 17.1297C114.738 18.4083 114.902 19.9738 115.066 21.8262C115.442 21.7775 115.721 21.7222 115.905 21.6603C117.888 21.3271 119.476 21.045 120.67 20.8141C121.896 20.5406 122.909 20.3904 123.709 20.3634C124.508 20.3364 125.228 20.4344 125.869 20.6573C126.51 20.8803 127.25 21.2816 128.089 21.8611C128.382 22.0527 128.639 22.2679 128.861 22.5068C129.078 22.7081 129.263 22.9519 129.415 23.2381C129.599 23.4819 129.711 23.7542 129.75 24.055Z" fill="black"/>
<path d="M139.452 45.3964C139.561 45.6499 139.706 45.8797 139.885 46.0859C140.022 46.2593 140.197 46.4279 140.409 46.5915C140.655 46.7128 140.93 46.7727 141.236 46.7714C141.041 47.3319 140.824 47.7232 140.585 47.9453C140.449 48.0776 140.327 48.1699 140.219 48.2221C139.895 48.3787 139.395 48.5008 138.718 48.5884C138.041 48.676 137.356 48.5544 136.663 48.2235C136.413 48.0646 136.17 47.8094 135.933 47.4577C135.706 47.1812 135.484 46.7894 135.265 46.2824C135.079 45.7329 134.893 45.0306 134.706 44.1754C134.325 45.3717 133.84 46.3521 133.251 47.1166C132.694 47.8386 132.116 48.3914 131.516 48.775C130.855 49.2812 130.153 49.6205 129.411 49.7931C128.48 49.99 127.558 49.9564 126.645 49.6923C125.764 49.3857 124.971 48.8765 124.267 48.1646C123.596 47.4103 123.035 46.4698 122.583 45.3429C122.131 44.2161 121.867 42.9121 121.79 41.4309C121.703 39.8745 121.826 38.4629 122.16 37.1963C122.493 35.9296 122.937 34.7824 123.492 33.7547C124.047 32.7269 124.66 31.8448 125.329 31.1081C125.993 30.3339 126.637 29.6961 127.261 29.1949C127.917 28.6511 128.477 28.2536 128.942 28.0023C129.439 27.7085 129.76 27.5331 129.906 27.476C130.305 27.3097 130.657 27.2258 130.963 27.2245C131.269 27.2232 131.554 27.3583 131.818 27.6299C131.908 27.733 132.019 27.8525 132.152 27.9883C132.246 28.129 132.367 28.3236 132.514 28.5723C132.656 28.7833 132.784 29.0344 132.898 29.3255C132.049 29.856 131.264 30.4355 130.542 31.0642C129.816 31.6553 129.16 32.3519 128.576 33.154C128.029 33.9513 127.577 34.8892 127.22 35.9678C126.862 37.0464 126.647 38.3361 126.573 39.8368C126.436 41.7281 126.722 43.2013 127.432 44.2565C128.18 45.3068 129.049 45.6722 130.04 45.3527C130.618 45.0868 131.154 44.6542 131.65 44.0547C132.081 43.5401 132.501 42.7975 132.91 41.8269C133.358 40.8513 133.723 39.5422 134.008 37.8995C133.904 35.6188 133.826 33.8319 133.773 32.5387C133.753 31.2031 133.756 30.1895 133.781 29.498C133.829 28.6888 133.874 28.1478 133.915 27.8748C134.003 27.6722 134.207 27.4737 134.526 27.2795C134.84 27.0477 135.197 26.8486 135.596 26.6822C135.995 26.5159 136.364 26.4108 136.702 26.367C137.036 26.2856 137.261 26.2564 137.379 26.2794C137.459 26.3072 137.557 26.7724 137.674 27.675C137.786 28.5399 137.892 29.6541 137.992 31.0176C138.125 32.3387 138.256 33.7938 138.385 35.383C138.51 36.9345 138.624 38.4108 138.729 39.812C138.871 41.2082 138.992 42.4353 139.091 43.4931C139.222 44.5084 139.343 45.1429 139.452 45.3964Z" fill="black"/>
<path d="M64.5138 97.279C63.9875 96.1616 63.4781 95.1758 62.9858 94.3217C62.531 93.4627 62.1308 92.7305 61.7852 92.1251C60.3814 92.803 58.8267 93.3474 57.121 93.7584C57.4311 96.1653 57.7516 98.2077 58.0825 99.8855C58.2558 100.934 58.4097 101.831 58.5442 102.579C58.7115 103.284 58.8479 103.897 58.9533 104.419C59.0964 104.935 59.2322 105.396 59.3607 105.8C59.4941 106.241 59.6626 106.659 59.8663 107.054C59.1869 107.715 58.5068 108.223 57.8262 108.578C57.1832 108.929 56.6057 109.194 56.0937 109.375C55.4737 109.608 54.9144 109.718 54.4159 109.706C54.16 109.203 53.918 108.661 53.6901 108.079C53.467 107.534 53.2524 106.759 53.0463 105.753C52.8827 104.78 52.7016 103.523 52.5029 101.981C52.3042 100.439 52.1062 98.4572 51.9089 96.0357C51.9126 95.7676 51.8975 95.5019 51.8636 95.2387C51.8296 94.9754 51.8145 94.7097 51.8182 94.4416C51.4749 94.4476 51.1128 94.4561 50.7318 94.4669C50.3885 94.4729 50.0452 94.4789 49.7019 94.4849C49.3987 93.9123 49.1804 93.4051 49.0471 92.9635C48.9089 92.4843 48.8204 92.0943 48.7816 91.7934C48.7331 91.4173 48.732 91.1116 48.7781 90.8763C49.3944 90.9116 50.0034 90.8904 50.6051 90.8129L51.4513 90.7039C51.323 89.1146 51.1923 87.5066 51.0591 85.8798C50.9211 84.2153 50.7716 82.6097 50.6105 81.0629C50.4822 79.4737 50.3472 77.9809 50.2055 76.5846C50.059 75.1506 49.9294 73.8483 49.8168 72.6776C48.7855 73.5751 47.9336 74.6789 47.2613 75.989C46.589 77.2991 46.2042 78.7633 46.1069 80.3816C45.6083 80.3693 45.1655 80.197 44.7786 79.8645C44.3868 79.4945 44.0514 79.1171 43.7725 78.7325C43.4462 78.2775 43.1503 77.7613 42.8847 77.1838C42.6046 76.4934 42.5125 75.7789 42.6085 75.0401C42.6996 74.2637 42.892 73.5316 43.1858 72.8438C43.4746 72.1184 43.832 71.4798 44.2579 70.9279C44.679 70.3384 45.0958 69.8641 45.5083 69.5051C46.2351 68.9144 46.9879 68.3777 47.7668 67.895C48.5785 67.3699 49.4939 66.9079 50.513 66.5089C50.8734 66.0419 51.2762 65.6077 51.7215 65.2062C52.2044 64.7999 52.6667 64.5301 53.1083 64.3967C53.7282 64.1639 54.1364 64.5127 54.3328 65.4432C54.6664 65.362 55.0212 65.2972 55.3973 65.2487C55.7686 65.1627 56.161 65.093 56.5747 65.0397C58.0038 64.8555 59.5184 64.8898 61.1185 65.1424C62.7186 65.395 64.2234 65.9466 65.6329 66.7973C67.0752 67.6055 68.3142 68.7649 69.3499 70.2754C70.3808 71.7484 71.0441 73.6319 71.3397 75.926C71.674 78.5209 71.3612 80.989 70.4012 83.3302C69.4788 85.6665 67.9814 87.6946 65.9091 89.4145C66.2596 90.0575 66.7071 90.8601 67.2516 91.8222C67.7961 92.7843 68.3576 93.878 68.9361 95.1034C69.7413 96.6054 70.5721 98.0086 71.4283 99.3128C72.3173 100.575 73.2033 101.665 74.0863 102.583C74.9693 103.502 75.8633 104.209 76.7682 104.704C77.6779 105.236 78.5538 105.506 79.3957 105.512C79.0037 106.327 78.5074 106.927 77.9069 107.31C77.3063 107.693 76.6912 107.963 76.0615 108.121C75.3615 108.326 74.6093 108.423 73.805 108.412C72.6853 108.327 71.6773 107.921 70.7809 107.196C69.8845 106.47 69.0604 105.563 68.3084 104.475C67.5941 103.382 66.9076 102.208 66.2491 100.955C65.6234 99.6594 65.0449 98.434 64.5138 97.279ZM54.8735 74.0906C54.9801 74.918 55.0897 75.917 55.2023 77.0877C55.3149 78.2584 55.4397 79.5231 55.5765 80.8818C55.751 82.2357 55.9163 83.6673 56.0725 85.1764C56.2239 86.648 56.3941 88.1171 56.5831 89.5839C57.5791 89.3026 58.657 88.9152 59.8169 88.4216C61.0143 87.9233 62.0887 87.2113 63.04 86.2859C63.9912 85.3604 64.7393 84.1935 65.2843 82.7852C65.8292 81.3768 65.9685 79.6384 65.7019 77.57C65.4984 75.9904 65.0443 74.6917 64.3397 73.6737C63.6678 72.6133 62.8557 71.8004 61.9035 71.2349C60.9465 70.6318 59.922 70.2477 58.8302 70.0825C57.7712 69.8748 56.734 69.8364 55.7186 69.9673C55.5305 69.9915 55.3425 70.0157 55.1545 70.04C54.9664 70.0642 54.762 70.1097 54.5412 70.1763C54.5834 71.3943 54.6942 72.6991 54.8735 74.0906Z" fill="black"/>
<path d="M85.4252 101.122C82.7926 101.462 80.6479 100.839 78.991 99.2559C77.3341 97.6725 76.3216 95.4517 75.9533 92.5935C75.6965 90.6002 75.7387 88.7023 76.0799 86.8996C76.4538 85.0545 77.0474 83.4296 77.8604 82.025C78.6735 80.6203 79.6733 79.4783 80.8599 78.599C82.0793 77.6772 83.4035 77.1243 84.8326 76.9401C86.2241 76.7608 87.4742 77.1159 88.5828 78.0053C89.6866 78.8571 90.3573 80.2045 90.5947 82.0473C90.7498 83.2507 90.6416 84.4881 90.2701 85.7594C89.8938 86.9931 89.3338 88.1358 88.5899 89.1874C87.8789 90.1966 87.0519 91.0487 86.1092 91.7437C85.1665 92.4386 84.225 92.8467 83.2848 92.9678C82.6831 93.0453 82.1657 93.0356 81.7326 92.9384C81.2995 92.8413 80.8944 92.6641 80.5171 92.4069C80.9062 94.536 81.5701 95.9797 82.509 96.7381C83.4429 97.4589 84.5681 97.7345 85.8844 97.5649C86.787 97.4486 87.5525 97.1588 88.181 96.6954C88.8471 96.2273 89.3931 95.7173 89.819 95.1654C90.2449 94.6135 90.5768 94.0737 90.8147 93.546C91.0477 92.9807 91.2036 92.5592 91.2825 92.2814C91.3663 92.0412 91.5398 91.9042 91.8031 91.8702C92.1039 91.8315 92.2834 92.0377 92.3416 92.489C92.3949 92.9027 92.3268 93.5614 92.1374 94.4652C91.9808 95.3265 91.6385 96.2308 91.1106 97.1782C90.5779 98.0879 89.845 98.9279 88.912 99.6981C88.0165 100.463 86.8543 100.938 85.4252 101.122ZM85.258 79.3513C85.0323 79.3804 84.6313 79.6806 84.055 80.2519C83.5114 80.7807 82.9405 81.5424 82.3423 82.5371C81.7816 83.5269 81.2828 84.6999 80.8458 86.0561C80.4416 87.3699 80.2661 88.8262 80.3192 90.4252C82.5078 89.6079 84.1876 88.5503 85.3585 87.2525C86.5294 85.9546 86.9743 84.2151 86.6933 82.0338C86.5527 80.9432 86.3266 80.2268 86.0149 79.8846C85.6983 79.5049 85.446 79.3271 85.258 79.3513Z" fill="black"/>
<path d="M103.414 95.1914C103.752 95.1478 104.126 94.488 104.535 93.2118C104.944 91.9357 105.284 90.4199 105.555 88.6645C105.864 86.9043 106.052 85.1023 106.12 83.2583C106.226 81.4095 106.124 79.8743 105.814 78.6526C105.685 78.2486 105.529 77.9246 105.344 77.6808C105.197 77.4321 105.011 77.1694 104.784 76.8927C104.971 76.5628 105.224 76.3008 105.543 76.1068C105.857 75.8751 106.16 75.7023 106.451 75.5883C106.812 75.427 107.179 75.3034 107.55 75.2173C108.448 75.0634 109.125 75.129 109.583 75.4142C109.837 75.6107 110.018 76.1227 110.125 76.9501C110.231 77.7775 110.263 78.7674 110.221 79.9199C110.211 81.0299 110.135 82.2248 109.994 83.5047C109.886 84.742 109.728 85.8902 109.521 86.9493C109.308 87.9707 109.033 89.0958 108.694 90.3247C108.35 91.5159 107.983 92.672 107.592 93.7928C107.197 94.8761 106.784 95.8277 106.354 96.6477C105.92 97.4301 105.524 97.9208 105.168 98.1197C104.417 98.5223 103.646 98.7745 102.857 98.8763C102.104 98.9732 101.622 98.9397 101.41 98.7759C101.325 98.7104 101.122 98.4689 100.8 98.0516C100.479 97.6342 100.103 97.09 99.6725 96.4191C99.2795 95.7433 98.8344 94.9595 98.3372 94.0678C97.8728 93.1336 97.4386 92.1381 97.0348 91.0814C96.6311 90.0247 96.2904 88.8643 96.0128 87.6001C95.7352 86.336 95.4437 85.1119 95.1382 83.9278C94.8654 82.7013 94.5484 81.576 94.1871 80.5521C93.8257 79.5281 93.3758 78.7068 92.8373 78.088L95.3506 76.6745C95.5617 76.5326 95.8128 76.4047 96.104 76.2907C96.3903 76.1391 96.6863 76.0627 96.992 76.0616C97.2977 76.0604 97.5804 76.1769 97.84 76.4111C98.1323 76.6028 98.3548 76.9947 98.5076 77.5867C98.67 78.254 98.8306 79.0553 98.9894 79.9907C99.1857 80.9212 99.3681 81.8917 99.5366 82.9023C99.7426 83.908 99.9487 84.9137 100.155 85.9195C100.356 86.8876 100.545 87.7617 100.722 88.5418C100.904 89.3595 101.104 90.1747 101.324 90.9876C101.581 91.7956 101.826 92.5095 102.059 93.1295C102.329 93.7446 102.566 94.2493 102.77 94.6436C103.011 95.0331 103.226 95.2157 103.414 95.1914Z" fill="black"/>
<path d="M123.334 96.2377C120.702 96.5769 118.557 95.9548 116.9 94.3713C115.243 92.7879 114.231 90.5671 113.862 87.7089C113.605 85.7156 113.648 83.8177 113.989 82.015C114.363 80.1699 114.956 78.545 115.769 77.1404C116.582 75.7357 117.582 74.5937 118.769 73.7144C119.988 72.7926 121.312 72.2397 122.742 72.0555C124.133 71.8762 125.383 72.2313 126.492 73.1207C127.596 73.9725 128.266 75.3199 128.504 77.1626C128.659 78.3661 128.551 79.6035 128.179 80.8748C127.803 82.1085 127.243 83.2512 126.499 84.3028C125.788 85.312 124.961 86.1641 124.018 86.8591C123.075 87.554 122.134 87.9621 121.194 88.0832C120.592 88.1607 120.075 88.1509 119.642 88.0538C119.209 87.9567 118.803 87.7795 118.426 87.5223C118.815 89.6514 119.479 91.0951 120.418 91.8535C121.352 92.5743 122.477 92.8499 123.793 92.6803C124.696 92.564 125.461 92.2741 126.09 91.8108C126.756 91.3427 127.302 90.8327 127.728 90.2808C128.154 89.7289 128.486 89.1891 128.724 88.6614C128.957 88.0961 129.113 87.6746 129.192 87.3968C129.275 87.1566 129.449 87.0196 129.712 86.9856C130.013 86.9469 130.192 87.1531 130.251 87.6044C130.304 88.0181 130.236 88.6768 130.046 89.5806C129.89 90.4419 129.547 91.3462 129.02 92.2936C128.487 93.2033 127.754 94.0433 126.821 94.8135C125.925 95.5788 124.763 96.0536 123.334 96.2377ZM123.167 74.4667C122.941 74.4958 122.54 74.796 121.964 75.3673C121.42 75.8961 120.849 76.6578 120.251 77.6525C119.691 78.6423 119.192 79.8153 118.755 81.1715C118.351 82.4853 118.175 83.9416 118.228 85.5406C120.417 84.7233 122.097 83.6657 123.267 82.3679C124.438 81.07 124.883 79.3305 124.602 77.1492C124.462 76.0586 124.236 75.3422 123.924 75C123.607 74.6203 123.355 74.4425 123.167 74.4667Z" fill="black"/>
<path d="M147.48 74.8896C147.548 75.4161 147.468 75.9808 147.239 76.5837C147.044 77.1441 146.771 77.6954 146.42 78.2377C146.07 78.7799 145.655 79.2729 145.177 79.7168C144.732 80.1183 144.288 80.3857 143.847 80.5191C143.997 79.3145 143.975 78.3998 143.78 77.775C143.585 77.1502 143.336 76.7043 143.034 76.4374C142.69 76.1377 142.289 75.9981 141.833 76.0186C141.156 76.1058 140.549 76.5855 140.011 77.4577C139.507 78.2874 139.101 79.2954 138.795 80.4818C138.485 81.6306 138.28 82.8613 138.181 84.1739C138.078 85.4489 138.092 86.5941 138.223 87.6095C138.277 88.3289 138.386 89.0222 138.548 89.6895C138.658 90.2487 138.79 90.8244 138.943 91.4164C139.133 92.0036 139.344 92.4544 139.576 92.7686C139.374 92.9857 139.027 93.2598 138.535 93.5909C138.08 93.9172 137.575 94.1542 137.02 94.3022C136.504 94.4452 136.003 94.4142 135.517 94.2091C135.07 93.9991 134.771 93.4641 134.622 92.6039C134.441 91.7863 134.265 90.8721 134.097 89.8615C133.961 88.8085 133.828 87.7743 133.697 86.7589C133.599 85.701 133.503 84.6619 133.41 83.6417C133.317 82.6214 133.252 81.6739 133.216 80.7993C133.078 79.1348 132.951 77.8513 132.835 76.9487C132.718 76.0461 132.588 75.1835 132.444 74.361C132.424 74.2106 132.642 73.9722 133.097 73.646C133.585 73.2773 134.115 72.9413 134.688 72.6381C135.298 72.3301 135.864 72.1234 136.386 72.0179C136.907 71.9125 137.185 71.9914 137.219 72.2546C137.272 72.6683 137.323 73.503 137.37 74.7586C137.45 75.9717 137.499 77.2461 137.518 78.5818C137.689 77.8333 137.929 77.0188 138.236 76.1381C138.58 75.2525 138.989 74.4162 139.461 73.6289C139.933 72.8417 140.497 72.1764 141.153 71.633C141.805 71.052 142.563 70.7058 143.428 70.5944C144.105 70.5071 144.677 70.6437 145.144 71.0041C145.649 71.3596 146.067 71.7837 146.398 72.2763C146.729 72.7689 146.985 73.2712 147.165 73.7831C147.346 74.2951 147.451 74.6639 147.48 74.8896Z" fill="black"/>
<path d="M159.049 80.1087C159.915 80.303 160.741 80.4833 161.527 80.6496C162.313 80.816 163.012 81.0508 163.625 81.3542C164.238 81.6576 164.747 82.0508 165.153 82.5337C165.555 82.979 165.804 83.5777 165.901 84.3299C166.017 85.2325 165.919 86.1053 165.608 86.9484C165.333 87.7866 164.859 88.555 164.184 89.2537C163.509 89.9523 162.649 90.5411 161.602 91.0201C160.597 91.5319 159.437 91.8726 158.12 92.0422C156.654 92.2312 155.45 92.2334 154.508 92.0488C153.572 91.9019 152.835 91.6719 152.297 91.3588C151.76 91.0457 151.392 90.7108 151.193 90.3541C150.994 89.9974 150.88 89.7062 150.851 89.4806C150.793 89.0293 150.824 88.5283 150.944 87.9775C151.06 87.3892 151.339 86.7414 151.783 86.0342C151.975 85.7419 152.188 85.4659 152.422 85.2064C152.891 84.6872 153.381 84.3373 153.893 84.1567C153.929 85.0313 154.115 85.7338 154.451 86.264C154.82 86.7517 155.249 87.117 155.739 87.3597C156.267 87.5975 156.82 87.7365 157.399 87.7767C158.015 87.812 158.586 87.7957 159.113 87.7279C159.639 87.66 160.156 87.517 160.663 87.2987C161.208 87.0756 161.692 86.8221 162.114 86.5383C162.531 86.2169 162.852 85.8888 163.077 85.554C163.334 85.1768 163.438 84.8001 163.39 84.424C163.336 84.0103 163.124 83.6937 162.751 83.474C162.379 83.2544 161.92 83.1033 161.374 83.0207C160.861 82.8956 160.298 82.8343 159.687 82.8366C159.108 82.7965 158.548 82.7539 158.007 82.7089C157.466 82.6639 156.732 82.6056 155.806 82.5338C154.912 82.4196 154.003 82.1926 153.08 81.8528C152.194 81.5081 151.383 81.0008 150.647 80.3311C149.948 79.6564 149.519 78.6986 149.359 77.4575C149.175 76.0284 149.372 74.7413 149.951 73.5962C150.563 72.4087 151.349 71.3898 152.31 70.5395C153.304 69.6468 154.378 68.9349 155.533 68.4038C156.688 67.8726 157.736 67.5465 158.676 67.4253C159.165 67.3623 159.701 67.3697 160.285 67.4475C160.863 67.4876 161.419 67.6454 161.951 67.9209C162.479 68.1587 162.927 68.5216 163.296 69.0093C163.702 69.4922 163.959 70.1473 164.065 70.9747C164.172 71.8021 164.184 72.4887 164.101 73.0346C164.052 73.5381 163.914 73.9572 163.69 74.292C163.498 74.5843 163.238 74.7899 162.909 74.9087C162.58 75.0275 162.19 75.116 161.739 75.1742C161.438 75.2129 161.151 75.2117 160.878 75.1704C160.643 75.1242 160.389 75.0805 160.116 75.0392C159.843 74.9979 159.582 74.8978 159.332 74.7388C159.65 74.2391 159.876 73.7703 160.011 73.3323C160.183 72.8896 160.23 72.3673 160.153 71.7656C160.085 71.2391 159.874 70.7884 159.52 70.4134C159.203 70.0337 158.725 69.885 158.086 69.9674C157.409 70.0546 156.768 70.271 156.163 70.6166C155.595 70.9574 155.095 71.385 154.665 71.8993C154.272 72.4087 153.963 72.9837 153.74 73.6242C153.549 74.2222 153.498 74.8597 153.585 75.5367C153.716 76.5521 154.215 77.4626 155.084 78.2683C155.99 79.0691 157.312 79.6826 159.049 80.1087Z" fill="black"/>
<path d="M185.839 84.6282C185.949 84.8818 186.093 85.1117 186.272 85.318C186.409 85.4915 186.584 85.6601 186.796 85.8239C187.041 85.9453 187.317 86.0054 187.622 86.0042C187.427 86.5647 187.21 86.9559 186.971 87.1778C186.835 87.31 186.713 87.4022 186.605 87.4543C186.281 87.6108 185.781 87.7326 185.104 87.8198C184.427 87.9071 183.742 87.785 183.049 87.4537C182.799 87.2948 182.556 87.0393 182.32 86.6875C182.093 86.4109 181.87 86.019 181.652 85.5118C181.467 84.9623 181.281 84.2598 181.094 83.4045C180.713 84.6006 180.227 85.5807 179.638 86.3449C179.081 87.0666 178.502 87.6191 177.901 88.0023C177.24 88.5081 176.538 88.8471 175.796 89.0192C174.865 89.2155 173.943 89.1814 173.03 88.9168C172.149 88.6097 171.357 88.1001 170.653 87.3878C169.983 86.6331 169.422 85.6922 168.971 84.5652C168.52 83.4381 168.256 82.1339 168.18 80.6526C168.094 79.0962 168.218 77.6847 168.552 76.4183C168.886 75.1518 169.331 74.0049 169.886 72.9774C170.442 71.95 171.055 71.0682 171.725 70.3319C172.39 69.558 173.034 68.9207 173.658 68.4197C174.314 67.8764 174.875 67.4792 175.339 67.2281C175.837 66.9346 176.158 66.7594 176.304 66.7024C176.703 66.5363 177.055 66.4526 177.361 66.4515C177.667 66.4503 177.952 66.5856 178.216 66.8574C178.306 66.9606 178.417 67.0801 178.549 67.216C178.644 67.3567 178.764 67.5514 178.911 67.8002C179.053 68.0113 179.181 68.2624 179.295 68.5536C178.446 69.0836 177.66 69.6627 176.938 70.291C176.211 70.8817 175.556 71.5779 174.971 72.3797C174.423 73.1766 173.971 74.1143 173.613 75.1927C173.255 76.2711 173.038 77.5606 172.964 79.0613C172.826 80.9525 173.111 82.4259 173.82 83.4815C174.568 84.5322 175.437 84.8981 176.428 84.5792C177.005 84.3136 177.542 83.8813 178.039 83.2821C178.469 82.7678 178.89 82.0254 179.3 81.055C179.748 80.0797 180.114 78.7708 180.4 77.1282C180.297 74.8475 180.22 73.0606 180.168 71.7673C180.149 70.4317 180.152 69.4181 180.178 68.7266C180.226 67.9175 180.271 67.3764 180.312 67.1035C180.401 66.9009 180.605 66.7026 180.924 66.5085C181.238 66.2769 181.595 66.078 181.994 65.9119C182.393 65.7457 182.762 65.6409 183.101 65.5972C183.434 65.516 183.66 65.487 183.777 65.51C183.858 65.5379 183.956 66.0032 184.072 66.9058C184.183 67.7708 184.289 68.8851 184.388 70.2486C184.52 71.5698 184.65 73.025 184.779 74.6142C184.902 76.1658 185.016 77.6422 185.12 79.0434C185.262 80.4398 185.381 81.6669 185.479 82.7247C185.61 83.7402 185.73 84.3746 185.839 84.6282Z" fill="black"/>
</svg>
